<?xml version="1.0" encoding="UTF-8" standalone="no"?>
<!DOCTYPE svg PUBLIC "-//W3C//DTD SVG 1.1//EN"
 "http://www.w3.org/Graphics/SVG/1.1/DTD/svg11.dtd">
<!-- Generated by graphviz version 2.43.0 (0)
 -->
<!-- Title: Architecture Pages: 1 -->
<svg width="481pt" height="385pt"
 viewBox="0.00 0.00 481.00 384.60" xmlns="http://www.w3.org/2000/svg" xmlns:xlink="http://www.w3.org/1999/xlink">
<g id="graph0" class="graph" transform="scale(1 1) rotate(0) translate(4 380.6)">
<title>Architecture</title>
<polygon fill="white" stroke="transparent" points="-4,4 -4,-380.6 477,-380.6 477,4 -4,4"/>
<g id="clust1" class="cluster">
<title>cluster_legend</title>
<polygon fill="none" stroke="black" points="8,-38.6 8,-94.6 149,-94.6 149,-38.6 8,-38.6"/>
</g>
<!-- ISU -->
<g id="node1" class="node">
<title>ISU</title>
<polygon fill="none" stroke="black" points="256,-84.6 202,-84.6 202,-48.6 256,-48.6 256,-84.6"/>
<text text-anchor="middle" x="229" y="-62.9" font-family="Times,serif" font-size="14.00">ISU</text>
</g>
<!-- MDMS -->
<g id="node2" class="node">
<title>MDMS</title>
<polygon fill="none" stroke="black" points="473,-196.6 407,-196.6 407,-160.6 473,-160.6 473,-196.6"/>
<text text-anchor="middle" x="440" y="-174.9" font-family="Times,serif" font-size="14.00">MDMS</text>
</g>
<!-- ISU&#45;&gt;MDMS -->
<g id="edge7" class="edge">
<title>ISU&#45;&gt;MDMS</title>
<path fill="none" stroke="blue" d="M265.07,-85.39C301.7,-105.02 359.11,-135.79 397.85,-156.55"/>
<polygon fill="blue" stroke="blue" points="266.51,-82.2 256.05,-80.56 263.21,-88.37 266.51,-82.2"/>
<polygon fill="blue" stroke="blue" points="396.32,-159.7 406.79,-161.34 399.63,-153.53 396.32,-159.7"/>
<text text-anchor="middle" x="339.5" y="-150.6" font-family="Times,serif" font-size="10.00" fill="blue">Meter Create</text>
</g>
<!-- ISU&#45;&gt;MDMS -->
<g id="edge8" class="edge">
<title>ISU&#45;&gt;MDMS</title>
<path fill="none" stroke="blue" d="M266.53,-62.99C300.07,-61.54 349.76,-64.26 385,-87.6 407.38,-102.42 421.8,-129.96 430.06,-150.88"/>
<polygon fill="blue" stroke="blue" points="266.03,-59.52 256.25,-63.59 266.43,-66.5 266.03,-59.52"/>
<polygon fill="blue" stroke="blue" points="426.88,-152.36 433.63,-160.53 433.44,-149.94 426.88,-152.36"/>
<text text-anchor="middle" x="339.5" y="-90.6" font-family="Times,serif" font-size="10.00" fill="blue">Meter Installation</text>
</g>
<!-- ISU&#45;&gt;MDMS -->
<g id="edge9" class="edge">
<title>ISU&#45;&gt;MDMS</title>
<path fill="none" stroke="red" d="M256.03,-53.14C288.95,-38.18 346.03,-19.36 385,-45.6 419.73,-68.98 432.13,-118.96 436.56,-150.55"/>
<polygon fill="red" stroke="red" points="433.08,-150.99 437.77,-160.5 440.03,-150.15 433.08,-150.99"/>
<text text-anchor="middle" x="339.5" y="-48.6" font-family="Times,serif" font-size="10.00" fill="red">Billing Request</text>
</g>
<!-- MDMS&#45;&gt;ISU -->
<g id="edge10" class="edge">
<title>MDMS&#45;&gt;ISU</title>
<path fill="none" stroke="red" d="M439.32,-160.4C438.83,-125.29 432.11,-48.69 385,-14.6 352.23,9.11 332.11,-1.07 294,-14.6 278.65,-20.05 264.31,-30.92 253.11,-41.32"/>
<polygon fill="red" stroke="red" points="250.59,-38.89 245.88,-48.38 255.48,-43.9 250.59,-38.89"/>
<text text-anchor="middle" x="339.5" y="-17.6" font-family="Times,serif" font-size="10.00" fill="red">Billing Response</text>
</g>
<!-- MV90 -->
<g id="node3" class="node">
<title>MV90</title>
<polygon fill="none" stroke="black" points="258.5,-376.6 199.5,-376.6 199.5,-340.6 258.5,-340.6 258.5,-376.6"/>
<text text-anchor="middle" x="229" y="-354.9" font-family="Times,serif" font-size="14.00">MV90</text>
</g>
<!-- MV90&#45;&gt;MDMS -->
<g id="edge5" class="edge">
<title>MV90&#45;&gt;MDMS</title>
<path fill="none" stroke="red" d="M258.77,-357.16C292.93,-353.98 349.69,-343.83 385,-311.6 415.3,-283.95 428.96,-236.88 434.85,-206.79"/>
<polygon fill="red" stroke="red" points="438.3,-207.37 436.63,-196.91 431.41,-206.13 438.3,-207.37"/>
<text text-anchor="middle" x="339.5" y="-354.6" font-family="Times,serif" font-size="10.00" fill="red">Interval Data</text>
</g>
<!-- NMS -->
<g id="node4" class="node">
<title>NMS</title>
<polygon fill="none" stroke="black" points="256,-286.6 202,-286.6 202,-250.6 256,-250.6 256,-286.6"/>
<text text-anchor="middle" x="229" y="-264.9" font-family="Times,serif" font-size="14.00">NMS</text>
</g>
<!-- NMS&#45;&gt;MDMS -->
<g id="edge2" class="edge">
<title>NMS&#45;&gt;MDMS</title>
<path fill="none" stroke="red" d="M256.27,-279.36C288.93,-290.9 345.23,-304.55 385,-280.6 411.44,-264.68 425.61,-231.01 432.7,-206.7"/>
<polygon fill="red" stroke="red" points="436.11,-207.49 435.33,-196.93 429.35,-205.68 436.11,-207.49"/>
<text text-anchor="middle" x="339.5" y="-296.6" font-family="Times,serif" font-size="10.00" fill="red">Interval Data</text>
</g>
<!-- NMS&#45;&gt;MDMS -->
<g id="edge3" class="edge">
<title>NMS&#45;&gt;MDMS</title>
<path fill="none" stroke="blue" d="M266.13,-266.97C298.99,-264.13 347.86,-256.43 385,-235.6 398.59,-227.98 410.8,-215.81 420.16,-204.66"/>
<polygon fill="blue" stroke="blue" points="265.77,-263.49 256.06,-267.73 266.3,-270.47 265.77,-263.49"/>
<polygon fill="blue" stroke="blue" points="422.93,-206.8 426.46,-196.81 417.47,-202.43 422.93,-206.8"/>
<text text-anchor="middle" x="339.5" y="-265.6" font-family="Times,serif" font-size="10.00" fill="blue">Ping</text>
</g>
<!-- NMS&#45;&gt;MDMS -->
<g id="edge4" class="edge">
<title>NMS&#45;&gt;MDMS</title>
<path fill="none" stroke="blue" d="M259.36,-244.41C269.82,-236.65 282,-228.53 294,-222.6 312.16,-213.63 360.96,-199.52 396.95,-189.71"/>
<polygon fill="blue" stroke="blue" points="257.19,-241.67 251.37,-250.52 261.44,-247.23 257.19,-241.67"/>
<polygon fill="blue" stroke="blue" points="397.99,-193.06 406.73,-187.07 396.16,-186.3 397.99,-193.06"/>
<text text-anchor="middle" x="339.5" y="-225.6" font-family="Times,serif" font-size="10.00" fill="blue">LSV</text>
</g>
<!-- Netcomm -->
<g id="node5" class="node">
<title>Netcomm</title>
<polygon fill="none" stroke="black" points="272,-196.6 186,-196.6 186,-160.6 272,-160.6 272,-196.6"/>
<text text-anchor="middle" x="229" y="-174.9" font-family="Times,serif" font-size="14.00">Netcomm</text>
</g>
<!-- Netcomm&#45;&gt;MDMS -->
<g id="edge6" class="edge">
<title>Netcomm&#45;&gt;MDMS</title>
<path fill="none" stroke="red" d="M272.34,-177.85C279.57,-177.74 287,-177.66 294,-177.6 334.44,-177.29 344.56,-177.23 385,-177.6 388.74,-177.64 392.62,-177.68 396.51,-177.74"/>
<polygon fill="red" stroke="red" points="396.68,-181.24 406.73,-177.91 396.79,-174.24 396.68,-181.24"/>
<text text-anchor="middle" x="339.5" y="-180.6" font-family="Times,serif" font-size="10.00" fill="red">Interval Data</text>
</g>
<!-- legend -->
<g id="node6" class="node">
<title>legend</title>
<text text-anchor="start" x="28.5" y="-72.2" font-family="Times,serif" font-size="8.00" fill="red">■</text>
<text text-anchor="start" x="45" y="-72.2" font-family="Times,serif" font-size="8.00">File&#45;based interfaces</text>
<text text-anchor="start" x="28.5" y="-57.2" font-family="Times,serif" font-size="8.00" fill="blue">■</text>
<text text-anchor="start" x="42.5" y="-57.2" font-family="Times,serif" font-size="8.00">Webservice interfaces</text>
</g>
<!-- legend&#45;&gt;ISU -->
</g>
</svg>
