<?xml version="1.0" encoding="UTF-8" standalone="no"?>
<!DOCTYPE svg PUBLIC "-//W3C//DTD SVG 1.1//EN"
 "http://www.w3.org/Graphics/SVG/1.1/DTD/svg11.dtd">
<!-- Generated by graphviz version 2.43.0 (0)
 -->
<!-- Title: Architecture Pages: 1 -->
<svg width="669pt" height="522pt"
 viewBox="0.00 0.00 669.00 522.00" xmlns="http://www.w3.org/2000/svg" xmlns:xlink="http://www.w3.org/1999/xlink">
<g id="graph0" class="graph" transform="scale(1 1) rotate(0) translate(4 518)">
<title>Architecture</title>
<polygon fill="white" stroke="transparent" points="-4,4 -4,-518 665,-518 665,4 -4,4"/>
<g id="clust1" class="cluster">
<title>cluster_legend</title>
<polygon fill="none" stroke="black" points="8,-237 8,-293 149,-293 149,-237 8,-237"/>
</g>
<!-- Click -->
<g id="node1" class="node">
<title>Click</title>
<polygon fill="none" stroke="black" points="240,-283 186,-283 186,-247 240,-247 240,-283"/>
<text text-anchor="middle" x="213" y="-261.3" font-family="Times,serif" font-size="14.00">Click</text>
</g>
<!-- ISU -->
<g id="node3" class="node">
<title>ISU</title>
<polygon fill="none" stroke="black" points="423,-283 369,-283 369,-247 423,-247 423,-283"/>
<text text-anchor="middle" x="396" y="-261.3" font-family="Times,serif" font-size="14.00">ISU</text>
</g>
<!-- Click&#45;&gt;ISU -->
<g id="edge11" class="edge">
<title>Click&#45;&gt;ISU</title>
<path fill="none" stroke="blue" d="M240.32,-265C271.51,-265 323.65,-265 358.67,-265"/>
<polygon fill="blue" stroke="blue" points="358.94,-268.5 368.94,-265 358.94,-261.5 358.94,-268.5"/>
<text text-anchor="middle" x="304.5" y="-268" font-family="Times,serif" font-size="10.00" fill="blue">Upload</text>
</g>
<!-- FATS_EMST -->
<g id="node2" class="node">
<title>FATS_EMST</title>
<polygon fill="none" stroke="black" points="661,-508 558,-508 558,-472 661,-472 661,-508"/>
<text text-anchor="middle" x="609.5" y="-486.3" font-family="Times,serif" font-size="14.00">FATS_EMST</text>
</g>
<!-- FATS_EMST&#45;&gt;ISU -->
<g id="edge8" class="edge">
<title>FATS_EMST&#45;&gt;ISU</title>
<path fill="none" stroke="red" d="M557.66,-473.5C515.76,-458.98 460.76,-437.49 445,-420 412.84,-384.31 402.23,-327.38 398.73,-293.35"/>
<polygon fill="red" stroke="red" points="402.19,-292.82 397.82,-283.16 395.22,-293.44 402.19,-292.82"/>
<text text-anchor="middle" x="490.5" y="-467" font-family="Times,serif" font-size="10.00" fill="red">Upload</text>
</g>
<!-- ISU&#45;&gt;Click -->
<g id="edge10" class="edge">
<title>ISU&#45;&gt;Click</title>
<path fill="none" stroke="blue" d="M368.86,-249.89C361.97,-246.64 354.39,-243.68 347,-242 310.16,-233.63 298.84,-233.63 262,-242 257.84,-242.94 253.63,-244.3 249.51,-245.88"/>
<polygon fill="blue" stroke="blue" points="247.95,-242.73 240.14,-249.89 250.71,-249.17 247.95,-242.73"/>
<text text-anchor="middle" x="304.5" y="-245" font-family="Times,serif" font-size="10.00" fill="blue">Order Download</text>
</g>
<!-- ISU&#45;&gt;FATS_EMST -->
<g id="edge7" class="edge">
<title>ISU&#45;&gt;FATS_EMST</title>
<path fill="none" stroke="red" d="M398.32,-283.13C402.15,-330.2 414.95,-454.38 445,-480 472.65,-503.58 513.43,-506.11 547.35,-502.73"/>
<polygon fill="red" stroke="red" points="548.11,-506.17 557.63,-501.51 547.29,-499.22 548.11,-506.17"/>
<text text-anchor="middle" x="490.5" y="-506" font-family="Times,serif" font-size="10.00" fill="red">Download</text>
</g>
<!-- MDMS -->
<g id="node4" class="node">
<title>MDMS</title>
<polygon fill="none" stroke="black" points="642.5,-373 576.5,-373 576.5,-337 642.5,-337 642.5,-373"/>
<text text-anchor="middle" x="609.5" y="-351.3" font-family="Times,serif" font-size="14.00">MDMS</text>
</g>
<!-- ISU&#45;&gt;MDMS -->
<g id="edge12" class="edge">
<title>ISU&#45;&gt;MDMS</title>
<path fill="none" stroke="blue" d="M398.98,-293.53C402.73,-323.25 413.6,-368.42 445,-390 482.66,-415.88 535.84,-396.69 571.2,-378.08"/>
<polygon fill="blue" stroke="blue" points="402.43,-292.92 397.89,-283.35 395.47,-293.67 402.43,-292.92"/>
<polygon fill="blue" stroke="blue" points="573.14,-381.01 580.23,-373.14 569.78,-374.87 573.14,-381.01"/>
<text text-anchor="middle" x="490.5" y="-405" font-family="Times,serif" font-size="10.00" fill="blue">Meter Create</text>
</g>
<!-- ISU&#45;&gt;MDMS -->
<g id="edge13" class="edge">
<title>ISU&#45;&gt;MDMS</title>
<path fill="none" stroke="blue" d="M405.96,-292.78C413.37,-310.94 425.84,-333.37 445,-345 481.5,-367.17 531.44,-366.77 566.5,-362.65"/>
<polygon fill="blue" stroke="blue" points="409.15,-291.34 402.34,-283.23 402.61,-293.82 409.15,-291.34"/>
<polygon fill="blue" stroke="blue" points="566.96,-366.12 576.41,-361.34 566.04,-359.18 566.96,-366.12"/>
<text text-anchor="middle" x="490.5" y="-367" font-family="Times,serif" font-size="10.00" fill="blue">Meter Installation</text>
</g>
<!-- ISU&#45;&gt;MDMS -->
<g id="edge14" class="edge">
<title>ISU&#45;&gt;MDMS</title>
<path fill="none" stroke="red" d="M419.02,-283.23C426.88,-289.14 436.02,-295.36 445,-300 456.07,-305.72 521.84,-327.25 566.51,-341.61"/>
<polygon fill="red" stroke="red" points="565.66,-345.01 576.25,-344.74 567.8,-338.35 565.66,-345.01"/>
<text text-anchor="middle" x="490.5" y="-333" font-family="Times,serif" font-size="10.00" fill="red">Billing Request</text>
</g>
<!-- NMS -->
<g id="node5" class="node">
<title>NMS</title>
<polygon fill="none" stroke="black" points="636.5,-171 582.5,-171 582.5,-135 636.5,-135 636.5,-171"/>
<text text-anchor="middle" x="609.5" y="-149.3" font-family="Times,serif" font-size="14.00">NMS</text>
</g>
<!-- ISU&#45;&gt;NMS -->
<g id="edge2" class="edge">
<title>ISU&#45;&gt;NMS</title>
<path fill="none" stroke="blue" d="M432.89,-251.42C470.89,-236.94 526.65,-215.37 536,-210 551.87,-200.88 568.01,-188.55 581.03,-177.68"/>
<polygon fill="blue" stroke="blue" points="431.28,-248.28 423.18,-255.11 433.77,-254.83 431.28,-248.28"/>
<polygon fill="blue" stroke="blue" points="583.36,-180.3 588.7,-171.15 578.82,-174.97 583.36,-180.3"/>
<text text-anchor="middle" x="490.5" y="-250" font-family="Times,serif" font-size="10.00" fill="blue">LSV</text>
</g>
<!-- ISU&#45;&gt;NMS -->
<g id="edge3" class="edge">
<title>ISU&#45;&gt;NMS</title>
<path fill="none" stroke="blue" d="M405.25,-246.98C413.27,-231.47 426.87,-209.66 445,-197 465.44,-182.73 530.58,-168.05 572.2,-159.77"/>
<polygon fill="blue" stroke="blue" points="573.1,-163.16 582.24,-157.81 571.75,-156.29 573.1,-163.16"/>
<text text-anchor="middle" x="490.5" y="-200" font-family="Times,serif" font-size="10.00" fill="blue">FW Updates</text>
</g>
<!-- ISU&#45;&gt;NMS -->
<g id="edge4" class="edge">
<title>ISU&#45;&gt;NMS</title>
<path fill="none" stroke="blue" d="M400.29,-236.63C405.08,-209.72 416.75,-170.69 445,-152 482.81,-126.98 537.09,-133.57 572.57,-142.07"/>
<polygon fill="blue" stroke="blue" points="396.81,-236.21 398.72,-246.63 403.73,-237.3 396.81,-236.21"/>
<polygon fill="blue" stroke="blue" points="571.93,-145.52 582.49,-144.61 573.67,-138.74 571.93,-145.52"/>
<text text-anchor="middle" x="490.5" y="-155" font-family="Times,serif" font-size="10.00" fill="blue">Provisioning</text>
</g>
<!-- ISU&#45;&gt;NMS -->
<g id="edge5" class="edge">
<title>ISU&#45;&gt;NMS</title>
<path fill="none" stroke="blue" d="M396.98,-236.41C398.68,-201.67 407.44,-144.3 445,-117 482.88,-89.47 537.83,-110.84 573.37,-130.48"/>
<polygon fill="blue" stroke="blue" points="393.47,-236.73 396.64,-246.83 400.46,-236.95 393.47,-236.73"/>
<polygon fill="blue" stroke="blue" points="571.99,-133.72 582.41,-135.66 575.47,-127.65 571.99,-133.72"/>
<text text-anchor="middle" x="490.5" y="-120" font-family="Times,serif" font-size="10.00" fill="blue">De&#45;provisioning</text>
</g>
<!-- ISU&#45;&gt;NMS -->
<g id="edge6" class="edge">
<title>ISU&#45;&gt;NMS</title>
<path fill="none" stroke="blue" d="M400.42,-236.66C406.59,-190.96 421.19,-104.27 445,-86 477.09,-61.38 498.34,-71.26 536,-86 557.01,-94.22 575.58,-111.7 588.67,-126.74"/>
<polygon fill="blue" stroke="blue" points="396.92,-236.43 399.1,-246.8 403.87,-237.33 396.92,-236.43"/>
<polygon fill="blue" stroke="blue" points="586.26,-129.33 595.35,-134.78 591.64,-124.85 586.26,-129.33"/>
<text text-anchor="middle" x="490.5" y="-89" font-family="Times,serif" font-size="10.00" fill="blue">RSS</text>
</g>
<!-- OMS -->
<g id="node6" class="node">
<title>OMS</title>
<polygon fill="none" stroke="black" points="636.5,-36 582.5,-36 582.5,0 636.5,0 636.5,-36"/>
<text text-anchor="middle" x="609.5" y="-14.3" font-family="Times,serif" font-size="14.00">OMS</text>
</g>
<!-- ISU&#45;&gt;OMS -->
<g id="edge9" class="edge">
<title>ISU&#45;&gt;OMS</title>
<path fill="none" stroke="red" d="M398.67,-246.78C403.26,-200.7 417.61,-81.2 445,-54 478.41,-20.82 535.02,-15.22 572.08,-15.58"/>
<polygon fill="red" stroke="red" points="572.35,-19.08 582.44,-15.84 572.53,-12.09 572.35,-19.08"/>
<text text-anchor="middle" x="490.5" y="-57" font-family="Times,serif" font-size="10.00" fill="red">Master Data</text>
</g>
<!-- MDMS&#45;&gt;ISU -->
<g id="edge15" class="edge">
<title>MDMS&#45;&gt;ISU</title>
<path fill="none" stroke="red" d="M594.51,-336.78C581.26,-320.92 559.87,-298.68 536,-287 503.65,-271.17 462.48,-266.27 433.36,-264.97"/>
<polygon fill="red" stroke="red" points="433.32,-261.47 423.22,-264.64 433.1,-268.46 433.32,-261.47"/>
<text text-anchor="middle" x="490.5" y="-290" font-family="Times,serif" font-size="10.00" fill="red">Billing Response</text>
</g>
<!-- legend -->
<g id="node7" class="node">
<title>legend</title>
<text text-anchor="start" x="28.5" y="-270.6" font-family="Times,serif" font-size="8.00" fill="red">■</text>
<text text-anchor="start" x="45" y="-270.6" font-family="Times,serif" font-size="8.00">File&#45;based interfaces</text>
<text text-anchor="start" x="28.5" y="-255.6" font-family="Times,serif" font-size="8.00" fill="blue">■</text>
<text text-anchor="start" x="42.5" y="-255.6" font-family="Times,serif" font-size="8.00">Webservice interfaces</text>
</g>
<!-- legend&#45;&gt;Click -->
</g>
</svg>
