<?xml version="1.0" encoding="UTF-8" standalone="no"?>
<!DOCTYPE svg PUBLIC "-//W3C//DTD SVG 1.1//EN"
 "http://www.w3.org/Graphics/SVG/1.1/DTD/svg11.dtd">
<!-- Generated by graphviz version 2.43.0 (0)
 -->
<!-- Title: Architecture Pages: 1 -->
<svg width="837pt" height="638pt"
 viewBox="0.00 0.00 837.00 637.70" xmlns="http://www.w3.org/2000/svg" xmlns:xlink="http://www.w3.org/1999/xlink">
<g id="graph0" class="graph" transform="scale(1 1) rotate(0) translate(4 633.7)">
<title>Architecture</title>
<polygon fill="white" stroke="transparent" points="-4,4 -4,-633.7 833,-633.7 833,4 -4,4"/>
<g id="clust1" class="cluster">
<title>cluster_legend</title>
<polygon fill="none" stroke="black" points="8,-237.7 8,-293.7 149,-293.7 149,-237.7 8,-237.7"/>
</g>
<!-- Click -->
<g id="node1" class="node">
<title>Click</title>
<polygon fill="none" stroke="black" points="240,-283.7 186,-283.7 186,-247.7 240,-247.7 240,-283.7"/>
<text text-anchor="middle" x="213" y="-262" font-family="Times,serif" font-size="14.00">Click</text>
</g>
<!-- ISU -->
<g id="node3" class="node">
<title>ISU</title>
<polygon fill="none" stroke="black" points="423,-283.7 369,-283.7 369,-247.7 423,-247.7 423,-283.7"/>
<text text-anchor="middle" x="396" y="-262" font-family="Times,serif" font-size="14.00">ISU</text>
</g>
<!-- Click&#45;&gt;ISU -->
<g id="edge16" class="edge">
<title>Click&#45;&gt;ISU</title>
<path fill="none" stroke="blue" d="M240.32,-265.7C271.51,-265.7 323.65,-265.7 358.67,-265.7"/>
<polygon fill="blue" stroke="blue" points="358.94,-269.2 368.94,-265.7 358.94,-262.2 358.94,-269.2"/>
<text text-anchor="middle" x="304.5" y="-268.7" font-family="Times,serif" font-size="10.00" fill="blue">Upload</text>
</g>
<!-- FATS_EMST -->
<g id="node2" class="node">
<title>FATS_EMST</title>
<polygon fill="none" stroke="black" points="652,-499.7 549,-499.7 549,-463.7 652,-463.7 652,-499.7"/>
<text text-anchor="middle" x="600.5" y="-478" font-family="Times,serif" font-size="14.00">FATS_EMST</text>
</g>
<!-- FATS_EMST&#45;&gt;ISU -->
<g id="edge8" class="edge">
<title>FATS_EMST&#45;&gt;ISU</title>
<path fill="none" stroke="red" d="M548.78,-473.49C509.6,-466.15 459.67,-454.32 445,-439.7 405.8,-400.65 397.84,-332.69 396.67,-294.28"/>
<polygon fill="red" stroke="red" points="400.17,-293.77 396.5,-283.83 393.17,-293.88 400.17,-293.77"/>
<text text-anchor="middle" x="486" y="-470.7" font-family="Times,serif" font-size="10.00" fill="red">Upload</text>
</g>
<!-- ISU&#45;&gt;Click -->
<g id="edge15" class="edge">
<title>ISU&#45;&gt;Click</title>
<path fill="none" stroke="blue" d="M368.86,-250.6C361.97,-247.35 354.39,-244.38 347,-242.7 310.16,-234.33 298.84,-234.33 262,-242.7 257.84,-243.65 253.63,-245 249.51,-246.58"/>
<polygon fill="blue" stroke="blue" points="247.95,-243.44 240.14,-250.6 250.71,-249.87 247.95,-243.44"/>
<text text-anchor="middle" x="304.5" y="-245.7" font-family="Times,serif" font-size="10.00" fill="blue">Order Download</text>
</g>
<!-- ISU&#45;&gt;FATS_EMST -->
<g id="edge7" class="edge">
<title>ISU&#45;&gt;FATS_EMST</title>
<path fill="none" stroke="red" d="M398.15,-283.93C401.6,-331.85 413.61,-459.45 445,-484.7 470.84,-505.49 507.75,-505.51 539.02,-499.96"/>
<polygon fill="red" stroke="red" points="539.82,-503.37 548.95,-497.98 538.46,-496.5 539.82,-503.37"/>
<text text-anchor="middle" x="486" y="-505.7" font-family="Times,serif" font-size="10.00" fill="red">Download</text>
</g>
<!-- MDMS -->
<g id="node4" class="node">
<title>MDMS</title>
<polygon fill="none" stroke="black" points="829,-303.7 763,-303.7 763,-267.7 829,-267.7 829,-303.7"/>
<text text-anchor="middle" x="796" y="-282" font-family="Times,serif" font-size="14.00">MDMS</text>
</g>
<!-- ISU&#45;&gt;MDMS -->
<g id="edge17" class="edge">
<title>ISU&#45;&gt;MDMS</title>
<path fill="none" stroke="blue" d="M400.51,-293.94C405.46,-320.38 417.24,-358.46 445,-376.7 554.95,-448.95 626.68,-441.8 741,-376.7 764.57,-363.29 778.91,-335.08 786.83,-313.61"/>
<polygon fill="blue" stroke="blue" points="403.91,-293.05 398.83,-283.76 397,-294.19 403.91,-293.05"/>
<polygon fill="blue" stroke="blue" points="790.19,-314.59 790.12,-304 783.57,-312.32 790.19,-314.59"/>
<text text-anchor="middle" x="600.5" y="-430.7" font-family="Times,serif" font-size="10.00" fill="blue">Meter Create</text>
</g>
<!-- ISU&#45;&gt;MDMS -->
<g id="edge18" class="edge">
<title>ISU&#45;&gt;MDMS</title>
<path fill="none" stroke="blue" d="M407.97,-293.09C415.78,-308.63 427.94,-326.72 445,-335.7 546.14,-388.99 685.36,-338.28 753.73,-306.69"/>
<polygon fill="blue" stroke="blue" points="411.06,-291.44 403.66,-283.85 404.71,-294.4 411.06,-291.44"/>
<polygon fill="blue" stroke="blue" points="755.34,-309.8 762.89,-302.37 752.35,-303.47 755.34,-309.8"/>
<text text-anchor="middle" x="600.5" y="-361.7" font-family="Times,serif" font-size="10.00" fill="blue">Meter Installation</text>
</g>
<!-- ISU&#45;&gt;MDMS -->
<g id="edge19" class="edge">
<title>ISU&#45;&gt;MDMS</title>
<path fill="none" stroke="red" d="M423.07,-278.75C430.02,-281.62 437.65,-284.23 445,-285.7 554.16,-307.54 686.32,-298.12 752.67,-291"/>
<polygon fill="red" stroke="red" points="753.18,-294.47 762.74,-289.88 752.41,-287.51 753.18,-294.47"/>
<text text-anchor="middle" x="600.5" y="-301.7" font-family="Times,serif" font-size="10.00" fill="red">Billing Request</text>
</g>
<!-- NMS -->
<g id="node6" class="node">
<title>NMS</title>
<polygon fill="none" stroke="black" points="627.5,-221.7 573.5,-221.7 573.5,-185.7 627.5,-185.7 627.5,-221.7"/>
<text text-anchor="middle" x="600.5" y="-200" font-family="Times,serif" font-size="14.00">NMS</text>
</g>
<!-- ISU&#45;&gt;NMS -->
<g id="edge2" class="edge">
<title>ISU&#45;&gt;NMS</title>
<path fill="none" stroke="blue" d="M433.34,-268.07C460.04,-268.59 496.77,-266.72 527,-255.7 543.59,-249.66 559.79,-238.68 572.65,-228.37"/>
<polygon fill="blue" stroke="blue" points="433.38,-264.57 423.27,-267.75 433.16,-271.56 433.38,-264.57"/>
<polygon fill="blue" stroke="blue" points="575.15,-230.84 580.59,-221.74 570.67,-225.46 575.15,-230.84"/>
<text text-anchor="middle" x="486" y="-270.7" font-family="Times,serif" font-size="10.00" fill="blue">LSV</text>
</g>
<!-- ISU&#45;&gt;NMS -->
<g id="edge3" class="edge">
<title>ISU&#45;&gt;NMS</title>
<path fill="none" stroke="blue" d="M423,-252.08C430.02,-248.73 437.7,-245.34 445,-242.7 484.5,-228.42 531.49,-217.36 563.2,-210.72"/>
<polygon fill="blue" stroke="blue" points="564.24,-214.08 573.33,-208.65 562.83,-207.23 564.24,-214.08"/>
<text text-anchor="middle" x="486" y="-245.7" font-family="Times,serif" font-size="10.00" fill="blue">FW Updates</text>
</g>
<!-- ISU&#45;&gt;NMS -->
<g id="edge4" class="edge">
<title>ISU&#45;&gt;NMS</title>
<path fill="none" stroke="blue" d="M409.78,-238.45C417.79,-224.74 429.56,-209.43 445,-201.7 482.02,-183.19 530.54,-187.72 563.25,-194.24"/>
<polygon fill="blue" stroke="blue" points="406.52,-237.12 404.83,-247.58 412.67,-240.45 406.52,-237.12"/>
<polygon fill="blue" stroke="blue" points="562.77,-197.72 573.28,-196.4 564.24,-190.88 562.77,-197.72"/>
<text text-anchor="middle" x="486" y="-204.7" font-family="Times,serif" font-size="10.00" fill="blue">Provisioning</text>
</g>
<!-- ISU&#45;&gt;NMS -->
<g id="edge5" class="edge">
<title>ISU&#45;&gt;NMS</title>
<path fill="none" stroke="blue" d="M402.81,-237.51C409.08,-215.09 421.49,-185.16 445,-170.7 481.73,-148.11 531.62,-165.71 564.65,-182.66"/>
<polygon fill="blue" stroke="blue" points="399.34,-236.95 400.28,-247.5 406.13,-238.67 399.34,-236.95"/>
<polygon fill="blue" stroke="blue" points="563.02,-185.76 573.49,-187.39 566.32,-179.59 563.02,-185.76"/>
<text text-anchor="middle" x="486" y="-173.7" font-family="Times,serif" font-size="10.00" fill="blue">De&#45;provisioning</text>
</g>
<!-- ISU&#45;&gt;NMS -->
<g id="edge6" class="edge">
<title>ISU&#45;&gt;NMS</title>
<path fill="none" stroke="blue" d="M399.12,-237.62C403.01,-208.36 413.98,-163.9 445,-142.7 475.09,-122.15 492.76,-130.22 527,-142.7 546.51,-149.82 564.4,-164.75 577.53,-178.06"/>
<polygon fill="blue" stroke="blue" points="395.64,-237.3 397.99,-247.63 402.59,-238.09 395.64,-237.3"/>
<polygon fill="blue" stroke="blue" points="575.28,-180.77 584.69,-185.63 580.37,-175.96 575.28,-180.77"/>
<text text-anchor="middle" x="486" y="-145.7" font-family="Times,serif" font-size="10.00" fill="blue">RSS</text>
</g>
<!-- OMS -->
<g id="node8" class="node">
<title>OMS</title>
<polygon fill="none" stroke="black" points="627.5,-86.7 573.5,-86.7 573.5,-50.7 627.5,-50.7 627.5,-86.7"/>
<text text-anchor="middle" x="600.5" y="-65" font-family="Times,serif" font-size="14.00">OMS</text>
</g>
<!-- ISU&#45;&gt;OMS -->
<g id="edge14" class="edge">
<title>ISU&#45;&gt;OMS</title>
<path fill="none" stroke="red" d="M397.38,-247.55C399.06,-215.66 407.2,-149.51 445,-112.7 476.69,-81.85 528.41,-72.34 563.18,-69.56"/>
<polygon fill="red" stroke="red" points="563.63,-73.04 573.39,-68.91 563.18,-66.06 563.63,-73.04"/>
<text text-anchor="middle" x="486" y="-115.7" font-family="Times,serif" font-size="10.00" fill="red">Master Data</text>
</g>
<!-- MDMS&#45;&gt;ISU -->
<g id="edge20" class="edge">
<title>MDMS&#45;&gt;ISU</title>
<path fill="none" stroke="red" d="M791.84,-267.37C782.02,-216.85 746.76,-75.94 652,-24.7 569.26,20.03 505.94,2.94 445,-68.7 403.67,-117.3 396.8,-195.82 396.31,-237.54"/>
<polygon fill="red" stroke="red" points="392.81,-237.55 396.31,-247.55 399.81,-237.55 392.81,-237.55"/>
<text text-anchor="middle" x="600.5" y="-27.7" font-family="Times,serif" font-size="10.00" fill="red">Billing Response</text>
</g>
<!-- MV90 -->
<g id="node5" class="node">
<title>MV90</title>
<polygon fill="none" stroke="black" points="630,-629.7 571,-629.7 571,-593.7 630,-593.7 630,-629.7"/>
<text text-anchor="middle" x="600.5" y="-608" font-family="Times,serif" font-size="14.00">MV90</text>
</g>
<!-- MV90&#45;&gt;MDMS -->
<g id="edge12" class="edge">
<title>MV90&#45;&gt;MDMS</title>
<path fill="none" stroke="red" d="M630.07,-601.26C662.15,-588.03 713.33,-562.07 741,-522.7 786.36,-458.16 794.27,-361.5 795.23,-314.05"/>
<polygon fill="red" stroke="red" points="798.74,-313.93 795.35,-303.9 791.74,-313.86 798.74,-313.93"/>
<text text-anchor="middle" x="707.5" y="-580.7" font-family="Times,serif" font-size="10.00" fill="red">Interval Data</text>
</g>
<!-- NMS&#45;&gt;MDMS -->
<g id="edge9" class="edge">
<title>NMS&#45;&gt;MDMS</title>
<path fill="none" stroke="red" d="M627.55,-211.4C656.02,-220.19 702.7,-235.69 741,-253.7 746.5,-256.29 752.16,-259.26 757.65,-262.34"/>
<polygon fill="red" stroke="red" points="756.28,-265.59 766.69,-267.55 759.78,-259.52 756.28,-265.59"/>
<text text-anchor="middle" x="707.5" y="-256.7" font-family="Times,serif" font-size="10.00" fill="red">Interval Data</text>
</g>
<!-- NMS&#45;&gt;MDMS -->
<g id="edge10" class="edge">
<title>NMS&#45;&gt;MDMS</title>
<path fill="none" stroke="blue" d="M637.64,-197.29C667.25,-193.89 709.28,-193.44 741,-210.7 759.97,-221.03 773.92,-241.23 782.88,-258.06"/>
<polygon fill="blue" stroke="blue" points="637.19,-193.82 627.73,-198.6 638.1,-200.76 637.19,-193.82"/>
<polygon fill="blue" stroke="blue" points="779.99,-260.1 787.58,-267.49 786.25,-256.98 779.99,-260.1"/>
<text text-anchor="middle" x="707.5" y="-213.7" font-family="Times,serif" font-size="10.00" fill="blue">Ping</text>
</g>
<!-- NMS&#45;&gt;MDMS -->
<g id="edge11" class="edge">
<title>NMS&#45;&gt;MDMS</title>
<path fill="none" stroke="blue" d="M636.87,-184.22C666.68,-170.66 709.42,-158.19 741,-177.7 769.05,-195.04 783.02,-231.86 789.62,-257.66"/>
<polygon fill="blue" stroke="blue" points="635.18,-181.14 627.67,-188.62 638.2,-187.46 635.18,-181.14"/>
<polygon fill="blue" stroke="blue" points="786.26,-258.68 791.95,-267.62 793.08,-257.09 786.26,-258.68"/>
<text text-anchor="middle" x="707.5" y="-180.7" font-family="Times,serif" font-size="10.00" fill="blue">LSV</text>
</g>
<!-- Netcomm -->
<g id="node7" class="node">
<title>Netcomm</title>
<polygon fill="none" stroke="black" points="643.5,-564.7 557.5,-564.7 557.5,-528.7 643.5,-528.7 643.5,-564.7"/>
<text text-anchor="middle" x="600.5" y="-543" font-family="Times,serif" font-size="14.00">Netcomm</text>
</g>
<!-- Netcomm&#45;&gt;MDMS -->
<g id="edge13" class="edge">
<title>Netcomm&#45;&gt;MDMS</title>
<path fill="none" stroke="red" d="M638.82,-528.58C670.41,-511.4 714.65,-482.74 741,-445.7 769.83,-405.18 784.17,-348.11 790.55,-314.21"/>
<polygon fill="red" stroke="red" points="794.05,-314.53 792.36,-304.07 787.16,-313.3 794.05,-314.53"/>
<text text-anchor="middle" x="707.5" y="-507.7" font-family="Times,serif" font-size="10.00" fill="red">Interval Data</text>
</g>
<!-- legend -->
<g id="node9" class="node">
<title>legend</title>
<text text-anchor="start" x="28.5" y="-271.3" font-family="Times,serif" font-size="8.00" fill="red">■</text>
<text text-anchor="start" x="45" y="-271.3" font-family="Times,serif" font-size="8.00">File&#45;based interfaces</text>
<text text-anchor="start" x="28.5" y="-256.3" font-family="Times,serif" font-size="8.00" fill="blue">■</text>
<text text-anchor="start" x="42.5" y="-256.3" font-family="Times,serif" font-size="8.00">Webservice interfaces</text>
</g>
<!-- legend&#45;&gt;Click -->
</g>
</svg>
